<svg width="254" height="297" viewBox="0 0 254 297" fill="none" xmlns="http://www.w3.org/2000/svg">
<rect x="0.5" y="0.5" width="54" height="257" fill="#14D32A" stroke="#14D32A"/>
<rect x="0.622188" y="157.581" width="56.4822" height="115.421" transform="rotate(-90.0554 0.622188 157.581)" fill="#14D32A" stroke="#14D32A"/>
<path d="M54.5 258.5V295.047L1.60254 258.5H54.5Z" fill="#14D32A" stroke="#14D32A"/>
<rect x="0.500261" y="54.5003" width="54" height="232.294" transform="rotate(-89.9701 0.500261 54.5003)" fill="#14D32A" stroke="#14D32A"/>
<path d="M253.003 0.283075L233.107 0.206482L233.294 54.9532L253.003 0.283075Z" fill="#1E1E1E"/>
<path d="M253.003 0.283075L233.107 0.206482L233.294 54.9532L253.003 0.283075Z" fill="#14D32A"/>
<path d="M253.003 0.283075L233.107 0.206482L233.294 54.9532L253.003 0.283075Z" stroke="#14D32A" stroke-width="0.3"/>
<path d="M148 101H117V156L148 101Z" fill="#14D32A" stroke="#14D32A"/>
<path d="M221 101H187.8L138 296H170.697L221 101Z" fill="#14D32A" stroke="#14D32A" stroke-width="0.3"/>
<path d="M172.911 101H189L179.447 137.792L125.648 227H99L172.911 101Z" fill="#14D32A" stroke="#14D32A" stroke-width="0.3"/>
<path d="M99 247.5V227H226L221 247.5H99Z" fill="#14D32A" stroke="#14D32A" stroke-width="0.3"/>
</svg>
